<?xml version="1.0" standalone="no"?>
<!DOCTYPE svg PUBLIC "-//W3C//DTD SVG 20010904//EN"
 "http://www.w3.org/TR/2001/REC-SVG-20010904/DTD/svg10.dtd">
<svg version="1.0" xmlns="http://www.w3.org/2000/svg"
 width="339.000000pt" height="736.000000pt" viewBox="0 0 339.000000 736.000000"
 preserveAspectRatio="xMidYMid meet">

<g transform="translate(0.000000,736.000000) scale(0.100000,-0.100000)"
fill="#000000" stroke="none">
<path d="M595 3995 c-62 -32 -96 -110 -63 -143 20 -20 36 -14 30 13 -9 50 26
115 63 115 12 0 10 -12 -9 -67 -13 -38 -36 -107 -50 -156 -15 -48 -29 -94 -32
-102 -4 -10 0 -15 13 -15 16 0 25 18 48 100 17 55 33 100 37 100 5 0 8 -45 8
-100 l0 -100 35 0 c24 0 35 5 35 14 0 20 74 200 77 189 2 -4 -5 -51 -15 -103
l-19 -95 30 -3 c16 -2 31 -1 34 2 5 4 73 340 73 359 0 5 -16 7 -36 5 l-36 -3
-53 -135 -53 -135 -4 135 -3 135 -40 3 c-22 1 -53 -5 -70 -13z"/>
<path d="M2467 3993 c-13 -13 -7 -61 9 -67 42 -16 74 16 54 54 -10 19 -49 27
-63 13z"/>
<path d="M1584 3884 c-34 -16 -57 -59 -73 -133 -5 -24 -15 -48 -23 -53 -26
-16 -58 -20 -73 -8 -21 17 -19 86 5 138 15 33 24 42 45 42 16 0 25 -6 25 -15
0 -8 5 -15 11 -15 6 0 9 10 7 23 -2 18 -10 23 -46 25 -78 6 -122 -49 -122
-152 0 -67 20 -96 66 -96 38 0 90 22 96 41 2 7 14 2 31 -14 34 -35 82 -36 131
-2 l36 25 -6 -25 c-6 -23 -3 -25 29 -25 l34 0 17 88 c10 48 19 94 22 104 7 23
35 31 52 14 13 -13 13 -23 3 -73 -18 -83 -12 -115 22 -127 21 -8 34 -6 56 7
25 15 30 15 41 2 17 -20 69 -19 92 2 17 15 19 15 36 0 24 -22 61 -22 92 0 22
16 23 16 17 0 -5 -14 0 -17 31 -17 l37 0 19 100 c13 74 22 103 36 110 14 7 21
5 32 -12 19 -28 48 -18 48 17 0 31 -23 42 -61 28 -18 -7 -29 -8 -29 -1 0 5
-14 8 -32 6 -31 -3 -32 -4 -50 -87 -9 -46 -23 -90 -29 -97 -13 -16 -45 -19
-53 -5 -5 8 15 126 30 173 4 15 -3 17 -62 17 -37 -1 -78 -5 -91 -10 -28 -11
-61 -62 -69 -109 -11 -73 -14 -80 -34 -80 -28 0 -30 10 -13 79 12 47 13 68 5
86 -14 29 -54 42 -88 26 -15 -6 -24 -7 -24 -1 0 6 -15 10 -34 10 l-34 0 -17
-77 c-19 -84 -56 -133 -100 -133 -46 0 -62 62 -18 68 12 2 36 16 53 32 40 37
42 91 5 108 -33 15 -43 15 -81 -4z m76 -38 c0 -28 -36 -76 -57 -76 -12 0 -14
7 -8 28 15 63 65 100 65 48z m445 13 c11 -16 -16 -137 -35 -161 -24 -30 -50
-18 -50 24 0 87 58 181 85 137z"/>
<path d="M959 3876 c-35 -18 -58 -56 -71 -119 -11 -49 -10 -62 3 -85 18 -33
60 -40 95 -17 22 14 26 14 40 0 20 -20 63 -19 86 2 17 15 18 15 18 0 0 -13 9
-17 34 -17 39 0 37 -3 61 114 9 44 18 83 21 88 8 13 36 9 48 -8 18 -24 48 -7
44 25 -3 25 -5 26 -80 28 l-77 2 -11 -57 c-21 -103 -30 -132 -48 -141 -35 -19
-47 2 -34 61 6 29 14 72 17 95 l7 42 -65 -1 c-36 0 -75 -5 -88 -12z m75 -15
c9 -14 -23 -154 -39 -170 -7 -7 -21 -11 -29 -8 -20 8 -22 82 -4 124 23 53 57
79 72 54z"/>
<path d="M2445 3878 c-8 -25 -35 -167 -35 -187 0 -48 61 -66 109 -32 27 19 27
19 39 0 15 -24 74 -26 97 -2 16 16 18 16 27 0 10 -20 58 -23 76 -5 17 17 15
38 -3 38 -8 0 -15 4 -15 9 0 12 29 150 36 173 4 15 -4 17 -68 16 -40 0 -85 -6
-99 -13 -28 -15 -56 -71 -62 -126 -6 -47 -13 -59 -37 -59 -35 0 -34 6 5 178 5
20 2 22 -30 22 -20 0 -38 -6 -40 -12z m251 -35 c-4 -8 -9 -39 -12 -70 -8 -61
-32 -100 -57 -90 -31 12 -15 129 23 167 22 22 54 16 46 -7z"/>
<path d="M898 3494 c-63 -34 -65 -92 -5 -148 53 -50 67 -74 67 -119 0 -38 -25
-67 -58 -67 -24 0 -52 25 -52 46 0 25 20 54 36 54 23 0 11 24 -14 28 -29 4
-72 -40 -72 -73 0 -14 11 -37 25 -50 20 -21 34 -25 83 -25 52 0 64 4 90 28 61
57 52 129 -23 201 -40 38 -46 48 -43 80 3 34 5 36 38 36 29 0 36 -4 38 -23 2
-13 -2 -30 -8 -38 -10 -11 -8 -14 13 -14 39 0 51 54 19 83 -23 21 -97 22 -134
1z"/>
<path d="M1643 3463 c-7 -2 -13 -18 -13 -33 0 -17 -7 -33 -17 -39 -13 -8 -15
-13 -6 -18 9 -6 8 -27 -5 -85 -18 -82 -43 -121 -64 -100 -9 9 -8 28 1 81 9 51
10 75 1 90 -14 26 -54 37 -86 22 -15 -6 -24 -7 -24 -1 0 6 -15 10 -34 10 l-33
0 -18 -82 c-22 -103 -29 -118 -60 -118 -29 0 -30 8 -10 100 23 103 25 99 -56
99 -68 0 -74 -2 -104 -32 -51 -51 -68 -160 -33 -204 15 -18 68 -16 89 3 17 15
19 15 34 0 19 -19 66 -21 84 -3 11 10 14 10 18 0 3 -7 19 -13 38 -13 l32 0 18
88 c22 108 30 124 58 120 24 -3 25 -15 12 -120 -6 -41 -4 -62 5 -73 16 -20 60
-19 88 1 21 15 25 15 41 0 25 -23 65 -20 99 9 l29 24 11 -24 c9 -19 19 -25 45
-25 18 0 42 7 54 15 18 13 22 13 33 0 16 -19 60 -19 88 1 20 14 22 14 22 -1 0
-12 8 -15 32 -13 l32 3 21 100 c20 93 23 100 47 103 35 4 39 -13 22 -93 -13
-60 -13 -71 1 -92 18 -27 60 -31 87 -6 17 15 19 15 36 0 24 -22 70 -22 95 0
18 17 19 17 28 0 14 -24 65 -22 79 2 13 26 13 31 -5 31 -19 0 -19 16 4 118
l18 82 -78 -3 c-66 -3 -83 -7 -104 -27 -25 -24 -55 -103 -55 -146 0 -26 -24
-38 -39 -20 -8 10 -8 30 2 72 25 104 -12 144 -97 109 -14 -6 -17 -5 -12 3 5 8
-4 12 -28 12 -29 0 -37 -4 -40 -22 -35 -159 -40 -173 -68 -176 -25 -3 -28 0
-28 25 0 15 7 55 15 88 21 87 23 84 -47 84 -110 -1 -138 -23 -162 -127 -10
-44 -19 -60 -39 -72 -42 -24 -49 -6 -30 89 13 64 21 85 35 89 22 5 24 22 3 22
-15 0 -14 19 1 68 3 12 -38 16 -63 5z m-423 -107 c0 -3 -7 -37 -15 -77 -17
-79 -28 -99 -56 -99 -43 0 -32 116 17 164 14 14 54 23 54 12z m662 -1 c7 -8
-22 -147 -34 -162 -18 -22 -47 -15 -54 12 -8 32 12 114 33 138 16 16 44 23 55
12z m518 1 c0 -23 -33 -153 -41 -163 -34 -40 -64 6 -49 74 15 64 35 93 65 93
14 0 25 -2 25 -4z"/>
</g>
</svg>
